<svg width="12" height="12" viewBox="0 0 12 12" fill="none" xmlns="http://www.w3.org/2000/svg">
<circle cx="5.75" cy="5.75" r="5.75" fill="#D65B5B"/>
<path d="M3.9765 8.3269V7.50361L5.90016 5.72244C6.06377 5.56411 6.20098 5.42162 6.31181 5.29496C6.4244 5.1683 6.50972 5.04428 6.56777 4.92289C6.62583 4.79975 6.65485 4.66693 6.65485 4.52444C6.65485 4.36611 6.61879 4.22978 6.54666 4.11543C6.47454 3.99933 6.37602 3.91049 6.25112 3.84892C6.12622 3.78559 5.9846 3.75392 5.82628 3.75392C5.66092 3.75392 5.51666 3.78734 5.39352 3.85419C5.27038 3.92104 5.17538 4.01692 5.10853 4.14182C5.04169 4.26672 5.00826 4.41537 5.00826 4.58777H3.92373C3.92373 4.23418 4.00377 3.9272 4.16386 3.66684C4.32394 3.40648 4.54824 3.20506 4.83674 3.06256C5.12525 2.92007 5.45773 2.84882 5.8342 2.84882C6.22121 2.84882 6.5581 2.91743 6.84484 3.05465C7.13335 3.1901 7.35764 3.37834 7.51773 3.61934C7.67781 3.86035 7.75786 4.13654 7.75786 4.44792C7.75786 4.65198 7.7174 4.85341 7.63647 5.05219C7.55731 5.25098 7.4157 5.47176 7.21163 5.71452C7.00757 5.95553 6.71994 6.24492 6.34875 6.58268L5.55976 7.35584V7.39278H7.8291V8.3269H3.9765Z" fill="white"/>
</svg>
